PathFileType	4	(X/Y/Z)	C:/Users/beibeiliu/ov580/test_trc/User3\sequence.38_training_dense_right.trc
DataRate	CameraRate	NumFrames	NumMarkers	Units	OrigDataRate	OrigDataStartFrame	OrigNumFrames
120	120	12	19	mm	120	163	260
Frame#	Time	ThumbCMC			ThumbMCP			ThumbIP			ThumbTip			IndexMCP			IndexPIP			IndexTip			MiddleMCP			MiddlePIP			MiddleTip			RingMCP			RingPIP			RingTip			PinkyMCP			PinkyPIP			PinkyTip			BackHand1			BackHand2			BackHand3	
		X0	Y0	Z0	X1	Y1	Z1	X2	Y2	Z2	X3	Y3	Z3	X4	Y4	Z4	X5	Y5	Z5	X6	Y6	Z6	X7	Y7	Z7	X8	Y8	Z8	X9	Y9	Z9	X10	Y10	Z10	X11	Y11	Z11	X12	Y12	Z12	X13	Y13	Z13	X14	Y14	Z14	X15	Y15	Z15	X16	Y16	Z16	X17	Y17	Z17	X18	Y18	Z18	
162	1.35	98.4228	-12.379	33.0224	83.7203	-1.32518	6.81422	75.5595	4.75458	-24.0841	69.9076	1.93193	-44.3198	95.3384	-11.9857	-43.2783	65.663	-21.7256	-48.7968	54.2712	-27.9438	-17.1961	96.1254	-36.8062	-45.8073	63.1787	-40.7675	-42.4988	64.0251	-43.725	-0.474934	99.2295	-54.5573	-38.0654	68.346	-60.8577	-31.3588	72.815	-56.2535	2.545	106.826	-72.699	-33.6927	76.6121	-75.5083	-35.0538	67.7141	-72.8988	-7.40765	136.951	-52.5396	3.78752	140.023	-57.189	36.7807	130.316	-19.7639	21.23	
163	1.35833	105.612	-8.53499	33.8308	100.876	1.33954	4.51065	94.5721	11.4948	-22.507	91.6907	7.09172	-48.1385	100.696	-14.6988	-42.3582	69.6482	-19.9844	-46.4806	60.3093	-24.336	-11.9508	99.2182	-36.1232	-44.9146	65.3119	-41.4542	-38.7695	64.7532	-40.0596	0.855393	98.0439	-56.0461	-40.5159	68.1672	-55.7923	-31.5721	71.0301	-50.5381	-0.357488	105.838	-71.5227	-32.8	78.5263	-71.0902	-36.883	69.2796	-65.3465	-6.16289	139.998	-56.9867	4.19754	139.776	-56.9929	35.9525	134.263	-22.8224	20.0618	
164	1.36667	113.501	-9.1785	33.9502	113.72	3.25142	4.82399	112.173	10.2479	-21.3357	111.1	12.535	-48.3046	108.035	-14.8108	-41.4792	73.9173	-15.0295	-44.7026	67.0968	-21.181	-9.71865	101.929	-35.4638	-46.1037	70.0244	-37.7152	-40.6654	65.498	-39.6364	-2.45339	101.517	-56.8833	-39.6297	70.2014	-56.6468	-32.4263	74.3867	-46.0243	0.364929	104.791	-75.3366	-33.6067	81.3338	-69.9751	-38.2665	67.4675	-60.7015	-12.671	138.651	-61.4258	4.93187	140.355	-64.0743	34.8128	139.868	-27.8967	23.7426	
165	1.375	119.632	-7.52531	34.1004	121.779	2.50915	7.16114	123.157	13.4457	-20.0131	122.737	17.2282	-44.0378	109.547	-15.6596	-44.2054	79.2435	-18.3409	-43.9859	70.7056	-22.9472	-10.3972	105.781	-40.5234	-45.3271	74.6703	-36.9549	-42.969	67.475	-33.7855	-2.77408	105.875	-55.6977	-38.4549	74.7719	-54.0196	-36.1524	75.541	-44.4384	-0.9682	108.051	-75.2317	-29.9682	77.9052	-70.1674	-35.1393	71.9484	-57.3138	-9.79263	142.469	-65.3654	5.87419	142.223	-63.8071	39.8523	144.216	-33.5068	22.6625	
166	1.38333	122.692	-6.56369	33.1229	126.796	5.20775	5.4691	130.927	17.1321	-21.4927	127.973	18.8532	-40.0879	110.577	-17.4394	-44.1314	80.8402	-17.4041	-43.4552	71.5967	-17.6909	-12.5389	110.362	-40.9668	-44.8645	76.1014	-36.5992	-42.3435	69.2982	-36.0184	-3.07069	104.071	-61.1919	-41.0383	75.3668	-52.705	-33.4395	79.2981	-47.7682	1.26602	107.121	-79.9529	-29.261	82.962	-70.7566	-35.8797	71.5865	-58.7797	-6.56477	143.63	-67.1567	5.27341	142.5	-63.1904	37.843	144.196	-29.8847	23.8628	
167	1.39167	125.532	-7.95841	29.6384	127.533	4.75184	7.99771	133.937	14.5394	-23.6095	132.152	22.2146	-42.4001	115.586	-18.8128	-42.4392	81.7325	-18.8109	-43.6524	73.7774	-21.4606	-11.395	108.87	-43.6473	-45.4048	75.2255	-37.5326	-39.8894	71.7468	-39.2451	-2.38962	104.234	-57.8694	-40.8451	75.1676	-54.7908	-32.7747	79.1225	-48.8009	0.516787	107.892	-76.6897	-31.0212	79.2869	-70.8145	-32.4734	72.4761	-59.3494	-2.59292	144.061	-67.4658	7.7012	142.184	-65.4371	37.615	144.697	-31.3757	24.0906	
168	1.4	123.666	-10.2568	33.1279	128.956	2.14162	3.90431	130.735	12.4027	-20.3221	133.465	22.0374	-44.3203	114.081	-18.9232	-43.1711	81.6544	-19.7027	-43.2788	73.8502	-23.4842	-9.64398	110.048	-41.5566	-44.6607	75.2329	-37.8161	-40.066	71.8024	-37.5701	-3.35435	107.104	-61.6517	-36.7311	77.2511	-53.0884	-33.6474	82.3962	-46.026	1.2199	107.194	-78.4316	-30.4826	81.4861	-71.5222	-34.6367	76.1435	-57.2466	-4.88067	143.335	-66.6234	5.71895	142.015	-68.0236	38.3649	147.998	-31.8339	21.7217	
169	1.40833	125.438	-8.05365	29.0249	125.473	0.551861	8.20678	128.865	10.8875	-18.6605	130.46	17.7016	-43.3878	113.844	-18.9262	-43.1971	80.8547	-15.8423	-41.971	75.6714	-20.6549	-7.44924	107.739	-44.2534	-46.3702	76.776	-35.3154	-40.9859	75.705	-36.0812	1.73506	104.399	-59.523	-40.4653	74.5206	-56.8019	-29.8501	80.7	-51.1491	1.63	109.426	-76.6576	-29.341	79.8587	-72.4993	-31.5841	77.2334	-60.8632	-2.56814	143.201	-65.3813	5.35386	145.426	-65.7478	37.0551	147.828	-34.9239	22.0571	
170	1.41667	123.969	-8.4305	34.3016	126.919	4.20885	4.51485	130.077	10.5691	-23.3783	127.719	20.4936	-42.1579	116.02	-19.7352	-40.7861	80.7328	-17.2425	-40.9848	75.2985	-22.2355	-8.54399	110.411	-43.8734	-45.0056	76.9371	-34.5076	-41.1954	78.4355	-40.5387	1.65724	107.295	-63.2774	-37.4858	77.5566	-56.2198	-33.1066	85.2187	-48.1536	2.22849	108.097	-79.496	-32.2665	82.3052	-68.2617	-32.6162	77.8239	-62.2135	-6.44905	142.215	-68.7968	4.82681	144.606	-69.2014	37.1957	148.047	-35.0786	21.4769	
171	1.425	124.486	-8.41571	33.1077	124.27	1.05591	6.95383	126.056	10.2684	-18.689	127.044	15.519	-42.2535	116.513	-18.0627	-39.9172	81.3864	-18.9547	-40.2215	75.8636	-22.8088	-8.68712	110.531	-41.4372	-45.3366	75.5956	-35.457	-37.1987	77.0502	-38.5434	0.360389	107.793	-58.132	-39.4339	76.2853	-53.916	-30.0254	83.1188	-50.0612	0.38393	108.639	-77.2378	-33.4049	82.6918	-69.6288	-34.1145	80.41	-59.5601	-4.35828	143.034	-68.3571	8.76846	145.914	-66.7001	35.4766	146.671	-30.3527	21.8064	
172	1.43333	123.568	-8.69481	33.2081	125.641	4.61219	4.49719	126.774	11.5103	-19.1193	126.991	19.1015	-45.4985	113.427	-16.2717	-42.7794	80.9993	-17.723	-39.936	78.8335	-19.5401	-5.17767	108.654	-41.288	-46.1285	77.7351	-34.3864	-39.1926	76.7315	-38.7604	-2.22441	111.319	-57.9387	-37.769	79.3908	-54.7325	-34.0367	85.538	-50.8842	1.04696	108.795	-78.9587	-33.363	84.0811	-71.1869	-34.4065	76.6644	-63.4064	-5.72168	144.516	-62.9017	9.0429	145.168	-67.7413	38.578	147.228	-34.814	20.9465	
173	1.44167	123.845	-11.485	34.783	124.393	1.84943	8.99186	128.675	15.0394	-20.1727	128.314	17.6546	-42.8495	115.16	-18.1911	-42.7276	85.2015	-15.2692	-42.3508	80.8674	-23.3583	-6.09971	110.736	-39.9778	-45.7399	80.3326	-34.1911	-41.8032	77.5055	-35.3969	-3.05035	108.597	-55.4834	-39.6673	78.0232	-54.8334	-31.5652	83.6435	-45.6279	-1.19805	111.498	-76.6843	-31.6552	85.5092	-69.0149	-35.0508	77.7854	-61.8766	-5.71563	146.863	-62.2546	6.82838	143.135	-66.3344	40.8374	148.446	-30.6729	25.3335	
